<?xml version="1.0" encoding="UTF-8"?>
<svg width="81.28mm" height="128.5mm" viewBox="0 0 81.28 128.5"
     xmlns="http://www.w3.org/2000/svg">

  <!-- Panel background -->
  <rect width="81.28" height="128.5" fill="#1e1e1e"/>
  <rect width="81.28" height="128.5" fill="none" stroke="#111" stroke-width="0.4"/>

  <!-- Mounting holes -->
  <circle cx="7.5"   cy="3"     r="1.6" fill="#111" stroke="#333" stroke-width="0.3"/>
  <circle cx="73.78" cy="3"     r="1.6" fill="#111" stroke="#333" stroke-width="0.3"/>
  <circle cx="7.5"   cy="125.5" r="1.6" fill="#111" stroke="#333" stroke-width="0.3"/>
  <circle cx="73.78" cy="125.5" r="1.6" fill="#111" stroke="#333" stroke-width="0.3"/>

  <!-- ============================================================ -->
  <!-- TOP ROW: 4 output jacks  Y=18.5mm                          -->
  <!-- CLK=18  TRG=33  CV=48  MIDI=63                             -->
  <!-- ============================================================ -->

  <text x="18"  y="12.5" text-anchor="middle" font-family="Arial" font-size="3" font-weight="bold" fill="#aaa" letter-spacing="0.3">CLK</text>
  <text x="33"  y="12.5" text-anchor="middle" font-family="Arial" font-size="3" font-weight="bold" fill="#aaa" letter-spacing="0.3">TRG</text>
  <text x="48"  y="12.5" text-anchor="middle" font-family="Arial" font-size="3" font-weight="bold" fill="#aaa" letter-spacing="0.3">CV</text>
  <text x="63"  y="12.5" text-anchor="middle" font-family="Arial" font-size="3" font-weight="bold" fill="#ffe66d" letter-spacing="0.3">MIDI</text>

  <circle cx="18"  cy="18.5" r="3.2" fill="#111" stroke="#555" stroke-width="0.3"/>
  <circle cx="33"  cy="18.5" r="3.2" fill="#111" stroke="#555" stroke-width="0.3"/>
  <circle cx="48"  cy="18.5" r="3.2" fill="#111" stroke="#555" stroke-width="0.3"/>
  <!-- MIDI jack: USB-B connector artwork, scaled to ~6.5mm, centered at (63,18.5) -->
  <!-- scale=0.2104, source viewBox center=(15.4492,17.2911) -->
  <g transform="translate(63,18.5) scale(0.2104) translate(-15.4492,-17.2911)">
    <!-- outer housing -->
    <path fill="#050707" d="M28.71866,34.58212H2.17974C0.9759,34.58212,0,33.60622,0,32.40238V2.17974C0,0.9759,0.9759,0,2.17974,0h26.53892c1.20384,0,2.17974,0.9759,2.17974,2.17974v30.22265C30.8984,33.60622,29.9225,34.58212,28.71866,34.58212z"/>
    <!-- silver face -->
    <path fill="#B8B8B8" d="M28.25113,33.9729H2.64727c-1.16142,0-2.10294-0.94152-2.10294-2.10294V2.71216c0-1.16142,0.94152-2.10294,2.10294-2.10294h25.60386c1.16142,0,2.10294,0.94152,2.10294,2.10294v29.15779C30.35407,33.03138,29.41255,33.9729,28.25113,33.9729z"/>
    <!-- lighter silver face -->
    <path fill="#D0D0D0" d="M28.25111,1.57397c0.62759,0,1.13818,0.51065,1.13818,1.13824v29.1578c0,0.62759-0.51059,1.13812-1.13818,1.13812H2.6473c-0.62759,0-1.13818-0.51053-1.13818-1.13812V2.71221c0-0.62759,0.51059-1.13824,1.13818-1.13824H28.25111"/>
    <!-- dark connector opening (chamfered pentagon) -->
    <path fill="#3B3939" d="M19.90901,4.0197H6.41321c-0.99926,0-1.80932,0.81006-1.80932,1.80932v22.9241c0,0.99926,0.81006,1.80932,1.80932,1.80932h13.4958c0.44939,0,0.88271-0.16724,1.21557-0.46916l6.38096-5.78777c0.37811-0.34296,0.59375-0.82968,0.59375-1.34016V11.61679c0-0.51048-0.21564-0.9972-0.59375-1.34016l-6.38096-5.78777C20.79172,4.18694,20.35841,4.0197,19.90901,4.0197z"/>
    <!-- gray contact area -->
    <path fill="#A8A7A7" d="M19.35455,24.40137h-6.77034c-0.27494,0-0.49782-0.233-0.49782-0.52042V10.70117c0-0.28742,0.22288-0.52043,0.49782-0.52043h6.77034c0.27494,0,0.49782,0.233,0.49782,0.52043v13.17977C19.85237,24.16837,19.62949,24.40137,19.35455,24.40137z"/>
    <!-- gold pins -->
    <path fill="#B0911A" d="M19.85237,16.13734h1.07983v-3.31041h-1.07983V16.13734z"/>
    <path fill="#B0911A" d="M19.85237,18.44478h1.07983v3.31041h-1.07983V18.44478z"/>
    <path fill="#B0911A" d="M11.00656,16.13734h1.07983v-3.31041h-1.07983V16.13734z"/>
    <path fill="#B0911A" d="M11.00656,18.44478h1.07983v3.31041h-1.07983V18.44478z"/>
    <!-- dark frame brackets -->
    <polygon fill="#292727" points="24.27907,7.66759 5.6039,7.66759 5.6039,4.59358 20.30407,4.59358"/>
    <rect x="5.6039" y="7.66759" fill="#292727" width="2.17517" height="21.89489"/>
    <rect x="22.05453" y="4.17556" transform="matrix(0.66783 -0.74431 0.74431 0.66783 1.31394 20.06925)" fill="#292727" width="2.17517" height="8.7739"/>
    <polygon fill="#292727" points="27.09926,23.85531 24.92409,25.84704 24.92409,8.69079 27.09926,10.54704"/>
    <!-- bevel highlight -->
    <path fill="#C8C8C8" d="M19.90901,5.01975c0.20142,0,0.39459,0.07458,0.54376,0.20984l6.38086,5.7876c0.16882,0.1532,0.26562,0.3717,0.26562,0.59961V22.9653c0,0.22791-0.0968,0.44641-0.2655,0.59949l-6.3811,5.78784c-0.14917,0.13525-0.34222,0.20984-0.54364,0.20984H6.41322c-0.44629,0-0.80933-0.36304-0.80933-0.80933V5.82907c0-0.44629,0.36304-0.80933,0.80933-0.80933H19.90901z"/>
  </g>

  <!-- ============================================================ -->
  <!-- BUTTONS  Y=30.5mm   MOON=9   LINT=72.5                     -->
  <!-- ============================================================ -->

  <circle cx="9"    cy="30.5" r="4"   fill="#2a2a2a" stroke="#a8e6cf" stroke-width="0.4"/>
  <circle cx="9"    cy="30.5" r="1.6" fill="#00cc44" stroke="#00ff88" stroke-width="0.25"/>
  <text   x="9"    y="38.5"  text-anchor="middle" font-family="Arial" font-size="2.8" fill="#a8e6cf" letter-spacing="0.2">MOON</text>

  <circle cx="72.5" cy="30.5" r="4"   fill="#2a2a2a" stroke="#ffd3b6" stroke-width="0.4"/>
  <circle cx="72.5" cy="30.5" r="1.6" fill="#00cc44" stroke="#00ff88" stroke-width="0.25"/>
  <text   x="72.5" y="38.5"  text-anchor="middle" font-family="Arial" font-size="2.8" fill="#ffd3b6" letter-spacing="0.2">LINT</text>

  <!-- ============================================================ -->
  <!-- DISPLAY  cx=40.64  cy=54.5  r=18.542mm                     -->
  <!-- ============================================================ -->
  <circle cx="40.64" cy="54.5" r="18.542" fill="#0a0a0a" stroke="#00ff88" stroke-width="0.6"/>
  <circle cx="40.64" cy="54.5" r="17.8"   fill="none"   stroke="#1a3a1a" stroke-width="0.2"/>

  <!-- ============================================================ -->
  <!-- KNOBS  Y=76.5mm                                             -->
  <!-- SPEED=10  SIZE=25  NUMBER=56  HEIGHT=71                    -->
  <!-- ============================================================ -->

  <circle cx="10"  cy="76.5" r="4.2" fill="#2a2a2a" stroke="#555" stroke-width="0.3"/>
  <circle cx="25"  cy="76.5" r="4.2" fill="#2a2a2a" stroke="#555" stroke-width="0.3"/>
  <circle cx="56"  cy="76.5" r="4.2" fill="#2a2a2a" stroke="#555" stroke-width="0.3"/>
  <circle cx="71"  cy="76.5" r="4.2" fill="#2a2a2a" stroke="#555" stroke-width="0.3"/>

  <!-- Knob labels (below knobs, above CV jacks) -->
  <text x="10"  y="84" text-anchor="middle" font-family="Arial" font-size="2.5" fill="#888" letter-spacing="0.1">SPEED</text>
  <text x="25"  y="84" text-anchor="middle" font-family="Arial" font-size="2.5" fill="#888" letter-spacing="0.1">SIZE</text>
  <text x="56"  y="84" text-anchor="middle" font-family="Arial" font-size="2.3" fill="#888" letter-spacing="0.1">NUMBER</text>
  <text x="71"  y="84" text-anchor="middle" font-family="Arial" font-size="2.5" fill="#888" letter-spacing="0.1">HEIGHT</text>

  <!-- ============================================================ -->
  <!-- CV INPUT JACKS  Y=94.5mm                                    -->
  <!-- ============================================================ -->

  <circle cx="10"  cy="94.5" r="3.2" fill="#111" stroke="#4ecdc4" stroke-width="0.3"/>
  <circle cx="25"  cy="94.5" r="3.2" fill="#111" stroke="#4ecdc4" stroke-width="0.3"/>
  <circle cx="56"  cy="94.5" r="3.2" fill="#111" stroke="#4ecdc4" stroke-width="0.3"/>
  <circle cx="71"  cy="94.5" r="3.2" fill="#111" stroke="#4ecdc4" stroke-width="0.3"/>

  <text x="10"  y="100" text-anchor="middle" font-family="Arial" font-size="2.2" fill="#4ecdc4" opacity="0.8">CV</text>
  <text x="25"  y="100" text-anchor="middle" font-family="Arial" font-size="2.2" fill="#4ecdc4" opacity="0.8">CV</text>
  <text x="56"  y="100" text-anchor="middle" font-family="Arial" font-size="2.2" fill="#4ecdc4" opacity="0.8">CV</text>
  <text x="71"  y="100" text-anchor="middle" font-family="Arial" font-size="2.2" fill="#4ecdc4" opacity="0.8">CV</text>

  <!-- ============================================================ -->
  <!-- GROUP LABELS below CV jacks                                  -->
  <!-- ============================================================ -->

  <line x1="4"  y1="104.5" x2="31" y2="104.5" stroke="#333" stroke-width="0.25"/>
  <line x1="50" y1="104.5" x2="77" y2="104.5" stroke="#333" stroke-width="0.25"/>

  <text x="17.5" y="109"  text-anchor="middle" font-family="Arial" font-size="3.2" font-weight="bold" fill="#00ff88" letter-spacing="1.2">DRUM</text>
  <text x="63.5" y="109"  text-anchor="middle" font-family="Arial" font-size="3.2" font-weight="bold" fill="#00ff88" letter-spacing="1.2">VANES</text>

  <!-- ============================================================ -->
  <!-- TITLE                                                        -->
  <!-- ============================================================ -->
  <text x="40.64" y="120.5" text-anchor="middle" font-family="Arial" font-size="6.5"
        font-weight="bold" fill="#00ff88" letter-spacing="2.5">DRYER</text>
  <text x="40.64" y="125"   text-anchor="middle" font-family="Arial" font-size="2"
        fill="#444" letter-spacing="0.8">DRFUNN</text>

</svg>
